<svg width="78" height="78" viewBox="0 0 341 97" fill="none" xmlns="http://www.w3.org/2000/svg">
<path d="M0.23291 68.0909V46.2727L67.8693 19.1818V42.0909L24.7784 57L25.5056 55.9091V58.4545L24.7784 57.3636L67.8693 72.2727V95.1818L0.23291 68.0909Z" fill="#fff"/>
<path d="M134.619 31C134.377 27.9697 133.24 25.6061 131.21 23.9091C129.21 22.2121 126.165 21.3636 122.074 21.3636C119.468 21.3636 117.331 21.6818 115.665 22.3182C114.028 22.9242 112.816 23.7576 112.028 24.8182C111.24 25.8788 110.831 27.0909 110.801 28.4545C110.74 29.5758 110.937 30.5909 111.392 31.5C111.877 32.3788 112.634 33.1818 113.665 33.9091C114.695 34.6061 116.013 35.2424 117.619 35.8182C119.225 36.3939 121.134 36.9091 123.347 37.3636L130.983 39C136.134 40.0909 140.544 41.5303 144.21 43.3182C147.877 45.1061 150.877 47.2121 153.21 49.6364C155.544 52.0303 157.256 54.7273 158.347 57.7273C159.468 60.7273 160.044 64 160.074 67.5455C160.044 73.6667 158.513 78.8485 155.483 83.0909C152.453 87.3333 148.119 90.5606 142.483 92.7727C136.877 94.9848 130.134 96.0909 122.256 96.0909C114.165 96.0909 107.104 94.8939 101.074 92.5C95.0738 90.1061 90.4072 86.4242 87.0738 81.4545C83.7708 76.4545 82.1041 70.0606 82.0738 62.2727H106.074C106.225 65.1212 106.937 67.5152 108.21 69.4545C109.483 71.3939 111.271 72.8636 113.574 73.8636C115.907 74.8636 118.68 75.3636 121.892 75.3636C124.589 75.3636 126.847 75.0303 128.665 74.3636C130.483 73.697 131.862 72.7727 132.801 71.5909C133.74 70.4091 134.225 69.0606 134.256 67.5455C134.225 66.1212 133.756 64.8788 132.847 63.8182C131.968 62.7273 130.513 61.7576 128.483 60.9091C126.453 60.0303 123.71 59.2121 120.256 58.4545L110.983 56.4545C102.74 54.6667 96.2405 51.6818 91.4829 47.5C86.7556 43.2879 84.4072 37.5455 84.4375 30.2727C84.4072 24.3636 85.9829 19.197 89.1647 14.7727C92.3769 10.3182 96.8162 6.84848 102.483 4.36363C108.18 1.87878 114.71 0.63636 122.074 0.63636C129.589 0.63636 136.089 1.89394 141.574 4.40909C147.059 6.92424 151.286 10.4697 154.256 15.0455C157.256 19.5909 158.771 24.9091 158.801 31H134.619Z" fill="#1e90ff"/>
<path d="M230.142 32.6364C229.748 31.0303 229.127 29.6212 228.278 28.4091C227.43 27.1667 226.369 26.1212 225.097 25.2727C223.854 24.3939 222.4 23.7424 220.733 23.3182C219.097 22.8636 217.294 22.6364 215.324 22.6364C211.081 22.6364 207.46 23.6515 204.46 25.6818C201.49 27.7121 199.218 30.6364 197.642 34.4545C196.097 38.2727 195.324 42.8788 195.324 48.2727C195.324 53.7273 196.066 58.3939 197.551 62.2727C199.036 66.1515 201.248 69.1212 204.187 71.1818C207.127 73.2424 210.778 74.2727 215.142 74.2727C218.99 74.2727 222.187 73.7121 224.733 72.5909C227.309 71.4697 229.233 69.8788 230.506 67.8182C231.778 65.7576 232.415 63.3333 232.415 60.5455L236.778 61H215.506V43H256.778V55.9091C256.778 64.3939 254.975 71.6515 251.369 77.6818C247.794 83.6818 242.854 88.2879 236.551 91.5C230.278 94.6818 223.081 96.2727 214.96 96.2727C205.9 96.2727 197.945 94.3485 191.097 90.5C184.248 86.6515 178.9 81.1667 175.051 74.0455C171.233 66.9242 169.324 58.4545 169.324 48.6364C169.324 40.9394 170.49 34.1212 172.824 28.1818C175.187 22.2424 178.46 17.2273 182.642 13.1364C186.824 9.01515 191.657 5.90909 197.142 3.81818C202.627 1.69697 208.506 0.63636 214.778 0.63636C220.294 0.63636 225.415 1.42424 230.142 3C234.9 4.54545 239.097 6.75757 242.733 9.63636C246.4 12.4848 249.354 15.8636 251.597 19.7727C253.839 23.6818 255.203 27.9697 255.687 32.6364H230.142Z" fill="#1e90ff"/>
<path d="M340.744 68.0909L273.108 95.1818V72.2727L316.199 57.3636L315.472 58.4545V55.9091L316.199 57L273.108 42.0909V19.1818L340.744 46.2727V68.0909Z" fill="#fff"/>
</svg>