<?xml version="1.0" standalone="no"?>
<!DOCTYPE svg PUBLIC "-//W3C//DTD SVG 20010904//EN"
 "http://www.w3.org/TR/2001/REC-SVG-20010904/DTD/svg10.dtd">
<svg version="1.0" xmlns="http://www.w3.org/2000/svg"
 width="230.000000pt" height="201.000000pt" viewBox="0 0 230.000000 201.000000"
 preserveAspectRatio="xMidYMid meet">

<g transform="translate(0.000000,201.000000) scale(0.100000,-0.100000)"
fill="#aaa" stroke="none">
<path d="M1100 1947 c-44 -22 -51 -50 -48 -209 3 -132 5 -150 23 -167 32 -31
94 -32 125 -1 18 18 20 33 20 176 0 85 -4 164 -10 174 -5 10 -24 23 -41 29
-39 14 -38 14 -69 -2z"/>
<path d="M465 1675 c-18 -17 -25 -35 -25 -62 0 -34 9 -46 108 -145 93 -93 112
-108 141 -108 39 0 91 46 91 82 0 32 -20 60 -109 151 -109 113 -157 132 -206
82z"/>
<path d="M1608 1592 c-99 -99 -108 -111 -108 -145 0 -50 36 -87 84 -87 30 0
46 11 115 78 102 99 141 149 141 179 0 37 -51 83 -91 83 -29 0 -48 -15 -141
-108z"/>
<path d="M1045 1406 c-80 -19 -140 -53 -199 -112 -167 -167 -166 -425 1 -590
206 -202 540 -141 670 124 26 53 28 66 28 173 0 111 -1 117 -34 182 -37 74
-113 152 -179 186 -50 25 -153 51 -202 50 -19 0 -58 -6 -85 -13z"/>
<path d="M204 1059 c-27 -30 -25 -93 4 -121 21 -21 33 -23 149 -26 148 -4 186
1 213 30 27 29 27 91 0 118 -18 18 -33 20 -183 20 -153 0 -165 -1 -183 -21z"/>
<path d="M1701 1054 c-28 -35 -26 -77 3 -111 l24 -28 155 0 c151 0 156 1 181
24 33 31 35 87 6 119 -20 21 -29 22 -185 22 l-164 0 -20 -26z"/>
<path d="M548 532 c-99 -99 -108 -111 -108 -145 0 -51 36 -87 85 -87 32 0 47
11 131 92 53 51 103 106 111 121 29 57 -15 127 -80 127 -26 0 -49 -18 -139
-108z"/>
<path d="M1545 628 c-32 -17 -45 -39 -45 -77 0 -31 12 -47 108 -143 98 -98
111 -108 145 -108 68 0 105 65 72 127 -10 18 -60 74 -111 123 -97 94 -121 105
-169 78z"/>
<path d="M1100 447 c-44 -22 -51 -50 -48 -209 3 -137 5 -149 25 -170 31 -30
84 -30 118 2 25 23 25 25 25 179 -1 163 -4 176 -47 199 -27 15 -42 15 -73 -1z"/>
</g>
</svg>
